<svg width="50" height="54" viewBox="0 0 50 54" fill="none" xmlns="http://www.w3.org/2000/svg">
<path d="M25.9308 21.1805C27.9286 21.3379 29.6632 22.3311 31.4299 23.2035C33.7706 24.3588 36.1908 25.3094 38.7215 25.9592C38.8119 25.9825 38.9023 26.0059 38.9954 26.03C39.886 26.2587 40.7691 26.484 41.6836 26.5919C43.9362 26.8756 46.1136 27.7946 47.7768 29.3558C47.8364 29.4101 47.896 29.4644 47.9575 29.5203C49.1886 30.8832 50.0335 32.6064 49.999 34.4666C49.8894 36.1129 49.23 37.2651 48.0091 38.3351C47.0283 39.1857 45.8259 39.6469 44.6469 40.1584C44.3669 40.2799 44.0871 40.4019 43.8073 40.5241C43.2127 40.7837 42.6177 41.0425 42.0227 41.3014C41.334 41.601 40.6454 41.9009 39.9571 42.2014C39.6842 42.3204 39.4112 42.4389 39.1381 42.5575C37.106 43.4423 35.207 44.3767 33.5201 45.8384C33.4406 45.9071 33.3612 45.9759 33.2793 46.0467C32.3491 46.8612 31.4794 47.7355 30.6084 48.6123C27.4694 51.7701 27.4694 51.7701 25.9046 52.7731C25.8203 52.8275 25.7361 52.882 25.6492 52.9381C24.2991 53.7821 22.7852 54.1887 21.1946 53.9157C19.5408 53.5168 18.1929 52.5078 17.2948 51.0746C15.8042 48.3754 15.9466 45.1219 16.6878 42.2228C16.7912 41.872 16.9027 41.525 17.0171 41.1777C17.4927 39.6295 17.8544 38.0111 18.0422 36.4024C18.051 36.3282 18.0597 36.254 18.0687 36.1776C18.246 34.646 18.3224 33.1214 18.3387 31.5801C18.3497 30.6903 18.4368 29.8425 18.5871 28.9658C18.6122 28.7787 18.6366 28.5915 18.6602 28.4042C19.1878 24.651 21.7913 21.0953 25.9308 21.1805Z" fill="#FEA145"/>
<path d="M22.0497 0.0184044C24.3659 0.300723 26.2438 1.79512 27.666 3.58922C29.7102 6.3867 30.4728 9.51103 29.9779 12.9331C29.7087 14.5635 28.8382 15.8963 27.5454 16.9032C26.4619 17.6605 25.1325 17.965 23.8162 17.8553C21.5156 17.4385 19.5487 15.954 18.2314 14.0658C18.094 13.8606 17.9581 13.6544 17.8234 13.4474C17.7525 13.3385 17.6815 13.2297 17.6084 13.1175C17.0848 12.2982 16.6605 11.5123 16.3611 10.5859C16.319 10.4565 16.2769 10.3271 16.2336 10.1938C15.8091 8.74998 15.6854 7.32976 15.8934 5.8377C15.9036 5.73533 15.9138 5.63295 15.9244 5.52748C16.2911 2.29166 18.682 -0.241886 22.0497 0.0184044Z" fill="#FEA145"/>
<path d="M7.82359 10.9565C10.7544 11.4776 13.2128 13.3086 14.9232 15.7028C16.2575 17.6355 17.0884 19.8968 16.7775 22.2722C16.4562 23.9056 15.7451 25.1207 14.3743 26.0887C12.9362 26.9862 11.3681 27.0781 9.72877 26.83C9.59657 26.8121 9.59657 26.8121 9.46171 26.7938C6.59123 26.314 4.27491 24.1702 2.5697 21.9519C1.21565 20.006 0.530641 17.5277 0.930722 15.1748C1.7046 11.8712 4.64128 10.5558 7.82359 10.9565Z" fill="#FEA145"/>
<path d="M38.9584 6.74907C39.523 6.81461 40.0216 6.96078 40.5385 7.1948C40.6022 7.22329 40.6659 7.25179 40.7315 7.28115C40.9528 7.39551 41.1508 7.52609 41.3554 7.66864C41.4593 7.74085 41.5633 7.81306 41.6705 7.88746C43.7358 9.4263 44.8572 11.9135 45.2437 14.4071C45.5551 16.7056 45.1087 18.901 43.8194 20.8361C43.0657 21.815 41.9264 22.4183 40.7106 22.5918C39.2876 22.6851 38.1637 22.2706 37.0742 21.3678C35.0003 19.5396 33.795 16.988 33.5984 14.2485C33.5421 12.4591 33.804 10.5158 34.7591 8.97425C34.8055 8.89861 34.8519 8.82297 34.8996 8.74504C35.8065 7.49274 37.4339 6.68211 38.9584 6.74907Z" fill="#FEA145"/>
<path d="M5.32081 29.3504C8.09044 29.4851 10.3985 30.7899 12.3099 32.7554C13.6988 34.3131 14.6479 36.2597 14.5637 38.3786C14.4181 39.708 13.7959 40.6852 12.7845 41.5397C11.381 42.5528 9.60305 42.5929 7.96088 42.3473C5.7542 41.9542 3.38332 40.5839 2.01218 38.7673C0.776933 36.9709 -0.311803 35.1469 0.0818486 32.8584C0.749795 30.4841 2.95647 29.2732 5.32081 29.3504Z" fill="#FEA145"/>
</svg>
