<svg width="200" height="45" viewBox="0 0 200 45" fill="none" xmlns="http://www.w3.org/2000/svg">
<path fill-rule="evenodd" clip-rule="evenodd" d="M185.097 31.4146L184.958 30.2947C184.927 30.1078 184.273 25.6967 187.382 22.5926C188.287 21.6862 189.381 21.167 190.379 21.167C191.229 21.167 191.929 21.5255 192.285 22.2075C194.003 25.5098 185.097 31.4146 185.097 31.4146ZM171.556 24.4626L171.439 22.5991L171.421 22.3638C171.416 22.3066 170.985 16.4127 171.369 12.2173C171.792 7.65443 173.174 4.70641 174.894 4.70641C175.245 4.70641 175.584 4.88241 175.847 5.19923C176.703 6.22883 176.956 8.98105 176.418 11.4583C175.555 15.4183 174.185 18.5555 173.182 20.8523C172.897 21.5014 172.645 22.0778 172.448 22.5771L171.556 24.4626ZM162.163 36.8882C159.967 36.8882 158.933 34.8576 158.933 32.9502C158.933 23.1074 164.561 21.167 167.023 21.9238C167.023 21.9238 167.103 23.7938 167.303 26.2006C167.474 28.2906 167.631 30.7634 167.668 30.9746C167.668 30.9746 165.621 36.8882 162.163 36.8882ZM144.271 22.3066C144.271 22.3066 143.645 36.8882 137.947 36.8882C135.215 36.8882 135.005 33.949 135.005 33.047C135.005 22.6475 143.173 20.7974 144.271 22.3066ZM91.5403 37.2358C88.2708 37.2358 87.1069 34.103 87.1069 31.1703C87.1069 25.8287 90.3305 21.6839 93.1016 21.6839C95.8024 21.6839 96.7818 25.2655 96.7818 27.6746C96.7818 33.036 94.4805 37.2358 91.5403 37.2358ZM35.8979 22.1438C39.3145 19.7854 40.8669 22.7994 39.5121 24.8343C37.6392 27.6503 33.3682 30.4355 32.1276 30.8799C32.1276 30.8799 31.2382 25.3646 35.8979 22.1459V22.1438ZM175.261 40.2586C179.298 40.4786 182.073 37.766 182.073 37.766C183.403 39.7922 185.774 40.78 189.127 40.78C192.813 40.78 196.626 38.1026 198.81 35.61C200.105 34.1316 200.245 33.2802 199.698 32.816C199.205 32.3936 198.106 32.948 197.103 33.8236C195.75 35.0072 192.882 36.71 190.373 36.71C187.329 36.71 185.944 34.7982 185.944 34.7982C192.139 31.1462 196.703 26.997 196.703 23.4374C196.703 19.4487 193.642 17.6646 190.61 17.6646C185.184 17.6646 179.326 22.4583 179.326 30.2023C179.326 32.761 180.218 34.9346 180.218 34.9346C180.218 34.9346 179.14 36.5537 175.718 36.281C172.081 35.9906 172.315 29.637 172.315 29.637C172.315 29.637 173.426 27.6306 173.845 26.8847C176.306 22.5134 179.677 16.5293 180.219 9.35285C180.523 5.33123 179.345 3.17302 178.302 2.07081C177.376 1.083 176.137 0.5 174.99 0.5C170.784 0.5 167.866 4.67122 167.158 8.79405C166.466 12.8355 166.745 18.8482 166.745 18.8482C166.745 18.8482 162.965 17.9439 159.172 20.4322C155.703 22.707 154.161 27.261 153.678 29.5622C153.459 30.5895 153.382 31.6698 153.454 32.7676C153.487 33.2802 153.65 34.268 153.65 34.268C153.65 34.268 152.402 36.809 150.185 36.809C146.612 36.809 148.97 20.7995 149.109 19.8998C149.218 19.1738 149.675 17.6271 147.154 17.5194C145.633 17.4534 144.998 18.0034 144.882 18.7206L144.778 19.4355C144.778 19.4355 139.614 16.0365 133.766 22.157C130.65 25.413 129.52 30.121 129.469 33.9006L129.465 34.1382C129.465 34.1382 128.185 37.7198 125.203 37.1852C123.217 36.8266 122.967 33.4122 122.967 32.0922C122.967 29.5622 123.571 26.7395 124.056 24.4714C124.364 23.0347 124.627 21.7962 124.627 21.1186C124.627 18.6986 123.925 17.6646 122.284 17.6646C120.047 17.6646 118.04 19.3783 115.815 22.0227C112.978 25.3975 110.866 30.6731 110.866 30.6731C110.866 30.6731 110.96 29.7294 111.107 28.8207C111.202 28.2334 111.459 25.5098 111.935 23.0391C112.199 21.6707 112.295 20.5487 112.313 20.4299C112.396 19.759 112.238 19.1803 111.861 18.7558C111.661 18.5426 111.419 18.3738 111.15 18.2605C110.881 18.1473 110.591 18.0918 110.299 18.0979C109.305 18.0979 108.027 18.7403 107.418 20.5422C107.142 21.3562 106.984 21.9567 106.784 22.9226L106.599 23.8202L105.908 23.2107C103.172 20.7907 99.3795 17.9066 93.9426 17.9066C86.2879 17.9066 82.1553 24.7595 82.1553 31.2078C82.1553 32.0042 82.2058 32.761 82.3047 33.4628L82.3442 33.74C82.3442 33.74 80.7456 37.4822 77.9394 36.8002C76.7118 36.501 75.9565 35.236 75.9565 32.2198C75.9565 29.7118 76.4769 26.3018 76.791 24.2558C76.894 23.5606 76.9797 23.0127 77.0018 22.7575L77.0719 22.0007C77.285 19.7238 77.3465 18.6942 76.5669 18.1991C76.0158 17.8459 75.3744 17.6602 74.7202 17.6646C74.0768 17.6646 73.5718 17.9506 73.1216 18.263C72.4277 18.7426 70.1616 21.6598 65.8798 28.4182C65.8429 28.4762 65.8048 28.5334 65.7656 28.5898L65.2979 29.461L64.1758 31.8524L64.7884 28.3763L64.8258 28.1498C64.9268 27.5646 65.1024 26.535 65.1771 26.2071L65.3571 25.4526C65.6448 24.2426 66.2465 21.7235 66.3277 21.2791C66.5847 19.8051 66.4815 18.8174 66.016 18.2674C65.6711 17.8626 65.0937 17.6646 64.2505 17.6646C62.6958 17.6646 61.4465 18.8063 59.29 22.1899C58.954 22.7179 57.696 24.7375 56.699 26.337C55.4123 28.4094 54.2418 29.9406 54.2418 29.9406L54.5142 27.1707C54.7227 25.9278 55.5023 20.2143 55.511 19.9482C55.5089 18.7426 54.8918 18.1815 53.5721 18.1815C53.0342 18.1815 51.7232 18.2959 51.1742 19.3563C50.6692 20.3243 49.2727 24.7155 48.5942 31.4299C48.5942 31.4299 43.1881 36.49 37.4086 36.49C35.2785 36.49 33.5944 35.6826 32.9839 34.1096C32.9839 34.1096 36.0756 32.5476 37.5426 31.5575C41.304 29.0275 44.0377 26.4491 44.0377 23.1382C44.0377 19.0858 40.1973 17.2619 37.0265 17.6646C31.5785 18.3554 26.9739 23.9038 26.9739 30.3498C26.9739 36.4108 30.4477 40.78 36.4952 40.78C43.4998 40.78 48.335 35.1656 48.335 35.1656L48.1902 37.7286C48.1002 39.064 48.6666 40.78 50.9723 40.78C51.5848 40.78 52.7026 40.5908 53.2976 39.3214C55.5184 34.622 57.9824 30.0419 60.68 25.5999L60.8074 25.3931L61.4595 24.1787L62.4302 22.6035L61.6527 25.9827C61.5123 26.7527 60.2739 33.608 60.096 36.6308C60.006 38.1576 60.0037 39.658 60.6185 40.3026C60.9282 40.6282 61.4289 40.78 62.1885 40.78C63.886 40.78 64.94 40.208 65.3198 39.0838C68.0866 30.9635 71.0642 25.4855 71.1915 25.2546L71.3079 25.0434L72.8713 22.0778C72.8713 22.0778 71.6373 28.8406 71.6373 33.4518C71.6373 35.6562 72.0831 39.6689 75.3153 40.4301C80.2889 41.6049 83.3455 36.6022 83.3455 36.6022L83.6705 37.4778C85.089 39.7944 87.4473 41.0198 90.4929 41.0198C96.8037 41.0198 100.879 36.2568 100.879 28.8846C100.879 24.3107 98.7119 21.6906 98.7119 21.6906C98.7119 21.6906 101.119 22.5111 102.886 23.741C104.057 24.5582 105.154 25.477 106.165 26.4866L106.116 26.7879C106.059 27.1399 106.006 27.4919 105.956 27.8483C105.751 29.3141 105.577 30.784 105.433 32.2572C105.295 33.6652 105.225 34.9412 105.225 36.0434C105.225 36.7144 105.262 37.3326 105.341 37.9354C105.411 38.4964 105.554 39.009 105.763 39.4534C105.829 39.5898 106.457 40.78 108.044 40.78C109.103 40.78 109.783 40.4081 110.284 39.2752C115.187 28.2003 119.116 24.6518 119.46 24.2975C120.37 23.3691 119.959 25.1006 119.959 25.1006L119.924 25.3271C119.656 26.9668 119.407 28.6096 119.177 30.2551C119.039 31.3815 118.969 32.4552 118.969 33.4518C118.969 36.5362 119.68 40.0518 123.398 40.6084C128.481 41.3674 130.242 37.513 130.242 37.513C130.242 37.513 132.082 40.78 136.423 40.78C142.791 40.78 144.763 36.061 144.763 36.061C145.433 38.899 146.627 40.4301 149.497 40.4301C152.604 40.4301 154.765 37.0466 154.765 37.0466C154.765 37.0466 156.561 40.78 160.955 40.78C166.04 40.78 168.64 37.018 168.745 36.8596L169.337 35.9642C169.337 35.9642 170.992 40.0254 175.261 40.2586ZM7.61105 39.2201C3.12276 39.0574 2.87463 35.6848 6.99621 34.8136C10.7665 34.0172 13.9087 35.291 13.9087 35.291C13.9087 35.291 12.9579 39.4116 7.61105 39.2201ZM27.5492 5.11122C30.1426 5.31803 29.9471 8.80725 29.24 10.9918C27.1737 17.405 22.2244 17.5963 22.2244 17.5963C22.2244 17.5963 23.79 4.81422 27.5492 5.11122ZM20.6235 28.1894C21.2626 24.3327 21.7874 20.6587 21.7874 20.6587C21.7874 20.6587 30.1031 20.7138 32.9379 11.2294C34.5847 5.70963 32.2505 1.006 27.3824 0.907001C22.4681 0.803602 18.6605 5.01001 16.8774 17.5831C16.8774 17.5831 12.1257 16.9782 10.0265 13.3569C9.03395 11.6409 7.53639 12.4395 8.0041 14.0675C9.58292 19.5763 16.5766 20.463 16.5766 20.463C16.5766 20.463 16.2868 22.9006 15.8542 25.8838C15.437 28.779 14.7146 32.4222 14.7146 32.4222C14.7146 32.4222 10.301 31.0714 5.60626 32.0196C-1.60927 33.4782 -2.40197 42.1264 6.4275 42.98C16.7808 43.9809 18.7352 37.062 18.7352 37.062C18.7352 37.062 20.7685 38.0146 23.6539 40.5094C26.8553 43.2748 28.3156 44.9908 28.9787 44.3748C29.7055 43.7016 28.1048 41.3498 25.1405 38.349C21.7852 34.9544 19.4619 34.0788 19.4619 34.0788C19.4619 34.0788 20.0176 31.8326 20.6235 28.1871V28.1894Z" fill="#4A4A4A"/>
</svg>
