<svg width="200" height="45" viewBox="0 0 200 45" fill="none" xmlns="http://www.w3.org/2000/svg">
<path d="M55.0928 11.8546C55.0928 10.7587 55.9107 9.9375 57.0014 9.9375H63.5899C68.6339 9.9375 71.7688 12.8127 71.7688 17.1489V17.1943C71.7688 22.0326 67.9067 24.5883 63.1811 24.5883H58.9096V29.7916C58.9096 30.8412 58.0917 31.6631 57.0464 31.6631C55.956 31.6631 55.1382 30.8412 55.1382 29.7916V11.8546H55.0928ZM63.2718 21.1651C66.1345 21.1651 67.9067 19.5676 67.9067 17.2858V17.24C67.9067 14.7298 66.0893 13.3607 63.2718 13.3607H58.8641V21.1196H63.2718V21.1651ZM81.1747 31.8912C76.4494 31.8912 72.8595 28.4683 72.8595 23.4473V23.4018C72.8595 18.7464 76.131 14.9123 80.8116 14.9123C85.9915 14.9123 88.5361 19.157 88.5361 22.9452C88.5361 23.9948 87.7179 24.7253 86.764 24.7253H76.5854C76.9947 27.3724 78.8574 28.8789 81.2657 28.8789C82.8563 28.8789 84.0828 28.331 85.1283 27.464C85.4009 27.2359 85.6734 27.1443 86.0825 27.1443C86.9004 27.1443 87.5366 27.7835 87.5366 28.6505C87.5366 29.107 87.3091 29.5179 87.0364 29.7916C85.5369 31.0696 83.7195 31.8912 81.1747 31.8912ZM84.8555 22.2607C84.6285 19.8416 83.1744 17.9704 80.7206 17.9704C78.4486 17.9704 76.8582 19.7505 76.4949 22.2607H84.8555ZM92.1712 27.0074V18.4269H90.0352C89.1267 18.4269 88.4451 17.6964 88.4451 16.8294C88.4451 15.9164 89.1723 15.2318 90.0356 15.2318H92.1712V12.4477C92.1712 11.4436 92.9894 10.5761 94.0344 10.5761C95.0341 10.5761 95.8973 11.3981 95.8973 12.4477V15.2318H98.8054C99.7139 15.2318 100.441 15.9623 100.441 16.8294C100.441 17.7424 99.7139 18.4269 98.8054 18.4269H95.8973V26.4139C95.8973 27.8745 96.6241 28.4677 97.8965 28.4677C98.3056 28.4677 98.7147 28.3765 98.8054 28.3765C99.6233 28.3765 100.396 29.061 100.396 29.9282C100.396 30.6127 99.9414 31.1607 99.3958 31.3888C98.5779 31.6627 97.8054 31.7997 96.8515 31.7997C94.1251 31.7997 92.1712 30.613 92.1712 27.0074ZM102.486 29.8831C102.077 29.6545 101.759 29.1984 101.759 28.6049C101.759 27.7835 102.395 27.0988 103.258 27.0988C103.576 27.0988 103.849 27.19 104.076 27.3269C105.667 28.3765 107.257 28.9246 108.756 28.9246C110.347 28.9246 111.255 28.2399 111.255 27.1443V27.0534C111.255 25.7754 109.529 25.3643 107.62 24.7712C105.212 24.0863 102.531 23.0823 102.531 19.9786V19.9331C102.531 16.8294 105.076 14.9578 108.302 14.9578C110.029 14.9578 111.846 15.4603 113.391 16.2815C113.937 16.5553 114.3 17.0574 114.3 17.6964C114.3 18.564 113.619 19.2025 112.755 19.2025C112.437 19.2025 112.255 19.157 112.028 19.0201C110.71 18.3354 109.347 17.925 108.211 17.925C106.757 17.925 105.939 18.6094 105.939 19.5225V19.5679C105.939 20.7545 107.711 21.2566 109.62 21.8956C111.982 22.6257 114.664 23.7213 114.664 26.6424V26.6879C114.664 30.1111 112.028 31.8001 108.62 31.8001C106.621 31.8455 104.394 31.2065 102.486 29.8831Z" fill="#003A5D"/>
<path d="M121.435 11.8548C121.435 10.7589 122.253 9.93775 123.343 9.93775H131.068C133.521 9.93775 135.475 10.6223 136.702 11.8544C137.656 12.813 138.156 13.9999 138.156 15.4146V15.4605C138.156 18.0618 136.702 19.4312 135.066 20.2983C137.565 21.1653 139.338 22.6259 139.338 25.5471V25.593C139.338 29.4723 136.157 31.5264 131.386 31.5264H123.343C122.252 31.5264 121.435 30.7044 121.435 29.6093V11.8548ZM130.295 19.0206C132.703 19.0206 134.339 18.0618 134.339 16.0995V16.0536C134.339 14.365 132.976 13.315 130.568 13.315H125.116V19.0663H130.296L130.295 19.0206ZM131.431 28.1947C134.021 28.1947 135.566 27.1902 135.566 25.2276V25.1821C135.566 23.3564 134.112 22.2609 131.159 22.2609H125.161V28.1947H131.431ZM149.698 31.8914C144.972 31.8914 141.383 28.4687 141.383 23.4475V23.402C141.383 18.7468 144.654 14.9125 149.334 14.9125C154.515 14.9125 157.059 19.1572 157.059 22.9454C157.059 23.995 156.241 24.7255 155.287 24.7255H145.108C145.517 27.3728 147.38 28.8792 149.789 28.8792C151.379 28.8792 152.606 28.3313 153.651 27.4642C153.924 27.2362 154.196 27.1447 154.605 27.1447C155.424 27.1447 156.059 27.7837 156.059 28.6508C156.059 29.1072 155.832 29.5182 155.56 29.7918C154.06 31.0698 152.243 31.8914 149.698 31.8914ZM153.378 22.2609C153.152 19.8419 151.697 17.9707 149.243 17.9707C146.971 17.9707 145.381 19.7507 145.017 22.2609H153.378ZM158.922 29.8833C158.513 29.6548 158.195 29.1987 158.195 28.6053C158.195 27.7837 158.831 27.0991 159.694 27.0991C160.013 27.0991 160.285 27.1902 160.512 27.3271C162.103 28.3768 163.693 28.9248 165.192 28.9248C166.783 28.9248 167.692 28.2402 167.692 27.1447V27.0536C167.692 25.7756 165.965 25.3647 164.056 24.7715C161.648 24.0865 158.967 23.0825 158.967 19.9788V19.9333C158.967 16.8296 161.512 14.9581 164.738 14.9581C166.464 14.9581 168.282 15.4605 169.828 16.2817C170.373 16.5556 170.736 17.0577 170.736 17.6967C170.736 18.5642 170.055 19.2029 169.191 19.2029C168.874 19.2029 168.692 19.1572 168.464 19.0203C167.146 18.3357 165.783 17.9252 164.647 17.9252C163.194 17.9252 162.375 18.6097 162.375 19.5227V19.5682C162.375 20.7549 164.148 21.2568 166.056 21.896C168.418 22.6259 171.1 23.7215 171.1 26.6427V26.6881C171.1 30.1113 168.464 31.8003 165.056 31.8003C163.056 31.8459 160.784 31.2068 158.922 29.8833ZM191.32 14C191.184 14 191.093 13.9085 191.093 13.817C191.093 13.726 191.093 13.6345 191.184 13.5894L191.592 13.1784C191.866 12.9044 192.183 12.5394 192.548 12.1288L192.684 11.9459C192.82 11.7634 192.956 11.5808 193.047 11.3979C193.229 11.0788 193.365 10.8048 193.501 10.5309C193.637 10.2113 193.728 9.89184 193.82 9.61824C193.82 9.57232 193.864 9.48126 193.864 9.43571L193.911 9.07028V8.88776C193.911 8.75078 193.956 8.6597 193.956 8.52273C194.002 8.15768 193.956 7.79263 193.911 7.47312C193.864 7.1536 193.82 6.78817 193.684 6.46867C193.548 6.05809 193.456 5.78411 193.319 5.55605C193.229 5.32761 193.047 5.0081 192.866 4.73413L192.82 4.68897C192.684 4.46053 192.548 4.27801 192.412 4.09548C192.274 3.91296 192.138 3.77597 192.047 3.63899C191.956 3.54791 191.911 3.45647 191.82 3.41094L191.639 3.22841C191.592 3.18248 191.592 3.13695 191.592 3.04589C191.592 2.99996 191.639 2.9089 191.684 2.86298C191.73 2.81743 191.775 2.81743 191.866 2.81743H191.956L192.093 2.86298C192.138 2.86298 192.138 2.9089 192.183 2.9089C192.274 2.95443 192.365 2.95443 192.456 3.04589L192.548 3.09142C192.684 3.18248 192.866 3.27394 193.047 3.41094C193.183 3.502 193.274 3.59344 193.41 3.68491C193.501 3.77597 193.637 3.86743 193.773 4.00404C193.911 4.14101 194.047 4.23247 194.138 4.36947C194.274 4.50606 194.41 4.64344 194.501 4.82558C194.728 5.14509 194.956 5.51052 195.138 5.92149C195.41 6.56012 195.728 7.51865 195.682 8.61417C195.682 8.7967 195.682 8.93369 195.637 9.11583V9.34427L195.546 9.80076C195.546 9.84631 195.501 9.93775 195.501 9.98328C195.364 10.4853 195.183 10.9418 194.956 11.3069C194.864 11.4894 194.728 11.7178 194.592 11.8548C194.455 12.0373 194.319 12.1739 194.183 12.3565C193.911 12.6304 193.637 12.9044 193.365 13.1325C192.928 13.4597 192.455 13.7354 191.956 13.9544C191.592 13.9085 191.365 13.9544 191.32 14ZM196 14.6845C195.728 14.6845 195.41 14.639 195.183 14.5475C195 14.502 194.909 14.4561 194.909 14.4105C194.864 14.365 194.82 14.365 194.82 14.3195V14.1825C194.864 14.1365 194.909 14.091 194.956 14.091C194.956 14.091 195.047 14.091 195.228 14.0455C195.455 13.9999 195.682 13.954 195.909 13.863C196.045 13.817 196.136 13.7715 196.319 13.6804C196.364 13.6345 196.455 13.589 196.5 13.589C196.546 13.5434 196.591 13.5434 196.637 13.4979L196.682 13.452C196.818 13.3609 196.909 13.2695 197 13.178L197.045 13.1325L197.319 12.7219C197.41 12.5849 197.455 12.4479 197.5 12.3109V12.2654C197.546 12.1284 197.591 11.9459 197.636 11.8089C197.682 11.6264 197.727 11.4894 197.727 11.3524C197.727 11.2158 197.773 11.0329 197.773 10.8963V10.6678V10.2113V9.89184C197.773 9.80076 197.863 9.70931 197.954 9.70931C198 9.70931 198.09 9.75523 198.09 9.75523C198.09 9.75523 198.181 9.84631 198.272 9.98328C198.317 10.0747 198.364 10.1658 198.455 10.2573C198.5 10.3942 198.591 10.5768 198.636 10.7589C198.727 11.0329 198.818 11.4439 198.727 11.9914C198.682 12.4479 198.5 12.95 198.228 13.3609C198.09 13.589 197.909 13.7715 197.727 13.954C197.546 14.1365 197.319 14.2735 197.136 14.365C197.045 14.4105 196.909 14.4561 196.818 14.502C196.727 14.5475 196.591 14.593 196.5 14.593C196.364 14.6845 196.183 14.6845 196 14.6845ZM189.73 8.84223C189.685 8.15768 189.594 7.47312 189.412 6.8341C189.229 6.19507 189.004 5.64711 188.775 5.14509C188.639 4.91702 188.503 4.64344 188.412 4.46053C188.276 4.23247 188.14 4.04995 188.004 3.86743C187.73 3.502 187.503 3.18248 187.276 2.95443L186.73 2.40647L186.549 2.22395C186.095 1.81337 185.367 1.81337 184.914 2.22395C184.46 2.68046 184.413 3.41094 184.868 3.91296L184.959 4.00404L185.095 4.14101C185.186 4.23248 185.322 4.36947 185.458 4.55199C185.64 4.73451 185.776 4.96257 185.959 5.23654C186.05 5.37353 186.14 5.51052 186.231 5.69305L186.504 6.24099C186.64 6.60565 186.821 7.01662 186.912 7.47312C187.004 7.92922 187.095 8.43126 187.095 8.93369C187.095 9.43533 187.048 9.93775 186.957 10.4853C186.912 10.7593 186.821 10.9874 186.776 11.2158C186.732 11.3524 186.685 11.4898 186.594 11.6719L186.549 11.7634V11.8544C186.594 11.7634 186.549 11.8089 186.549 11.8089L186.458 11.9914C186.231 12.4935 185.912 12.9044 185.596 13.315C185.277 13.726 184.868 14.0455 184.504 14.3646C184.095 14.6386 183.687 14.9125 183.277 15.0951C183.088 15.1909 182.892 15.2675 182.687 15.3235C182.504 15.3691 182.277 15.4605 182.096 15.506C181.733 15.5971 181.368 15.643 181.052 15.6886C180.914 15.6886 180.733 15.6886 180.597 15.7341H179.96C179.869 15.7341 179.778 15.7341 179.688 15.6886H179.642V12.95C179.642 12.0373 178.871 11.2158 177.916 11.2158C176.962 11.2158 176.234 11.9914 176.234 12.95V15.7341H173.872C173.008 15.7341 172.282 16.4646 172.282 17.3317C172.282 18.1987 173.008 18.9292 173.872 18.9292H176.234V27.0536C176.234 30.0659 177.96 31.7545 180.914 31.7545C181.778 31.7545 182.551 31.6179 183.277 31.2982C183.914 31.0698 184.277 30.5223 184.277 29.8833C184.279 29.679 184.24 29.4764 184.164 29.2872C184.087 29.0982 183.973 28.9264 183.829 28.7819C183.685 28.6374 183.514 28.5232 183.325 28.4459C183.138 28.3684 182.935 28.3295 182.732 28.3313C182.596 28.3313 182.46 28.3772 182.324 28.3772C182.096 28.4227 181.823 28.5142 181.415 28.5142C180.143 28.5142 179.597 28.0118 179.597 26.7341V18.9292H180.733C180.914 18.9292 181.141 18.8837 181.368 18.8377C181.823 18.7922 182.368 18.6553 182.914 18.5182C183.186 18.4271 183.46 18.3357 183.778 18.2442C184.05 18.1076 184.368 18.0166 184.64 17.8337C185.231 17.5142 185.821 17.1491 186.367 16.6927C186.912 16.2361 187.458 15.7341 187.868 15.0951C188.322 14.502 188.73 13.863 189.004 13.1325L189.14 12.8585L189.184 12.7674V12.676L189.229 12.5394C189.276 12.3569 189.32 12.2654 189.367 12.0829C189.458 11.6719 189.594 11.3072 189.639 10.9418C189.73 10.3028 189.775 9.57232 189.73 8.84223Z" fill="#00AFAA"/>
<path d="M41.5519 14.9124C41.1428 14.9124 40.7337 14.8669 40.3703 14.8213C37.2804 14.4559 35.0994 12.7217 33.9634 11.5352C33.0545 12.7673 32.1002 13.8169 31.5551 14.684C30.101 16.9665 19.8772 27.0534 17.8327 29.7005C15.515 32.6217 13.6522 36.8665 13.243 38.6006C12.5162 41.5217 10.653 41.6132 8.01758 41.5672C2.92851 41.4306 3.47363 38.8746 3.65534 38.2811C3.97343 37.049 4.29153 37.2315 4.33724 37.2771C4.2462 37.186 2.92851 36.1815 2.06527 38.0527C0.293107 41.9327 2.88316 43.8039 10.1989 43.7584C12.3345 43.7584 15.606 42.5717 16.1058 41.9327C16.6057 41.3392 17.0601 40.883 17.1508 42.3433C17.2418 43.8039 18.6506 43.7584 18.6506 43.7584C19.1958 43.7584 19.6049 43.5758 20.8769 43.3932L20.8314 43.2563C20.4681 42.0698 20.5134 40.5177 20.6951 39.331C21.0585 37.0034 22.4673 33.6713 24.3305 32.0738C25.2844 31.2982 26.6025 30.8873 27.738 30.4762C28.9198 30.02 30.5556 30.7047 30.8737 29.1527C31.1918 27.7381 30.5556 26.2315 31.1463 24.9079C31.4646 24.1778 31.6458 23.8583 31.7822 23.0369C31.8732 22.3977 32.4183 21.7132 32.7364 21.1653C33.1457 20.6176 33.1457 23.1738 33.9182 23.6759C34.7361 23.5844 36.1444 24.0863 36.5535 24.7255C36.7353 24.9993 36.7353 25.3188 36.917 25.5929C37.0986 25.8209 37.6442 25.9124 37.7353 26.0946C38.053 26.6425 37.6892 27.327 37.2804 27.829C36.8263 28.3771 36.3262 28.4225 35.7356 28.468C35.2359 29.2441 35.2812 30.2937 35.7356 31.2068C36.3719 32.4393 36.6442 33.3521 36.0991 34.5384C35.327 36.273 34.9631 38.0075 35.1449 39.7876V40.2437C35.2359 41.0656 35.3722 41.7501 35.5082 42.2978C35.5082 42.3433 35.6446 42.4347 36.3265 42.7083C37.0081 42.9823 40.3703 42.7542 41.3246 42.3888C41.7337 42.2522 41.3698 41.6132 40.9158 41.2022C40.4614 40.7916 39.0526 40.7916 38.8255 40.5177C38.5982 40.1981 38.3257 39.0115 38.1894 38.2811C38.053 37.551 38.4622 34.0823 38.5074 33.1238C38.5527 32.1653 39.5982 30.9327 40.0978 30.1112C40.5974 29.2896 43.0514 25.684 43.4148 25.045C43.9604 24.0408 44.278 23.4473 44.5508 21.7587C44.7326 20.6633 44.4145 16.647 44.142 14.5929C43.2956 14.8087 42.4254 14.916 41.5519 14.9124Z" fill="#00AFAA"/>
<path d="M51.0036 4.46137C50.7763 4.09632 46.9595 3.95972 46.278 3.95972C45.5961 3.95972 45.051 2.08818 43.7332 2.04227C43.5516 2.04227 43.3241 2.04227 43.0063 1.99674L42.9607 1.95119C42.2791 1.44916 41.9611 1.40324 40.9615 1.63169C40.4617 1.76867 39.9166 1.90566 39.5075 2.17965C39.1894 2.22479 38.9166 2.27071 38.9166 2.27071C38.0987 2.17926 37.0534 2.04227 36.5539 2.49876C35.9631 3.04671 35.7817 3.36584 35.6907 4.37029C35.5996 5.28291 35.5543 6.24183 36.0995 6.6524C36.0084 8.02151 35.5086 9.29956 34.8271 10.4406C35.7361 11.4447 37.6899 13.1792 40.598 13.4987C41.6883 13.6353 42.8243 13.5443 43.915 13.2703C43.8243 12.7223 43.9603 11.8097 43.9603 11.8097C43.9603 11.8097 44.3241 11.7642 44.5964 11.8097C44.8692 11.8553 45.142 11.5817 45.3691 11.3991C45.5961 11.2166 46.0052 10.9882 46.9142 11.0796C47.8227 11.1707 48.5046 11.0796 48.9587 10.8057C49.4132 10.5317 49.4585 10.0756 49.4585 10.0756C49.4585 10.0756 50.2311 10.4862 50.5492 10.4406C50.8673 10.3951 50.2764 9.52761 49.5495 8.93451C48.8223 8.38656 46.6414 8.47802 46.6414 8.47802C46.6414 8.47802 47.2775 8.06706 47.4135 8.06706C47.55 8.06706 48.7313 7.93007 49.0041 7.79307C49.3222 7.65648 50.6398 6.46949 50.7763 6.3329C50.9126 6.19591 50.7763 5.32844 50.7763 5.32844C50.7763 5.32844 51.1854 4.8268 51.0036 4.46137Z" fill="#00AFAA"/>
<path d="M55.8652 37.6871H57.91C59.1371 37.6871 59.955 38.3263 59.955 39.4214C59.955 40.6083 59.0008 41.2015 57.819 41.2015H56.4561V43.1185H55.8656L55.8652 37.6871ZM57.8195 40.6539C58.728 40.6539 59.3188 40.1519 59.3188 39.4672C59.3188 38.6913 58.728 38.2803 57.8648 38.2803H56.5017V40.6535L57.8195 40.6539ZM62.5451 37.6871H66.4529V38.2352H63.1356V40.1064H66.0894V40.6539H63.1356V42.5709H66.4529V43.1185H62.4998V37.6871H62.5451ZM70.7694 38.2803H68.9523V37.7328H73.178V38.2807H71.3603V43.164H70.724V38.2803H70.7694ZM79.7209 37.6871H80.3116V40.1064H83.4468V37.6868H84.0377V43.1185H83.4468V40.6539H80.3121V43.1185H79.7209V37.6871ZM87.2187 37.6871H91.1264V38.2352H87.8091V40.1064H90.7627V40.6539H87.8091V42.5709H91.1264V43.1185H87.1734V37.6871H87.2187ZM96.0792 37.6413H96.67L99.1236 43.1185H98.4875L97.8513 41.7036H94.8979L94.2616 43.1185H93.6254L96.0792 37.6413ZM97.6243 41.1558L96.3972 38.3718L95.1702 41.1558H97.6243ZM101.714 37.6871H102.304V42.5709H105.349V43.1185H101.714V37.6871ZM108.711 38.2803H106.894V37.7328H111.12V38.2807H109.302V43.164H108.711V38.2803ZM113.8 37.6871H114.391V40.1064H117.527V37.6868H118.117V43.1185H117.527V40.6539H114.391V43.1185H113.8V37.6871ZM125.115 37.6871H125.705V43.1185H125.115V37.6871ZM128.886 37.6871H129.477L132.885 42.0231V37.6871H133.476V43.1185H132.976L129.477 38.6458V43.1185H128.886V37.6871ZM136.202 42.3426L136.565 41.886C137.111 42.388 137.656 42.6621 138.429 42.6621C139.155 42.6621 139.655 42.2969 139.655 41.7494C139.655 41.2473 139.383 40.9734 138.247 40.6997C137.02 40.4259 136.429 40.0149 136.429 39.1477C136.429 38.2803 137.156 37.6871 138.201 37.6871C138.974 37.6871 139.565 37.9152 140.11 38.3718L139.746 38.8282C139.247 38.4173 138.747 38.2347 138.201 38.2347C137.52 38.2347 137.065 38.6458 137.065 39.1019C137.065 39.6038 137.338 39.9238 138.519 40.1514C139.746 40.4254 140.291 40.8363 140.291 41.7036C140.291 42.6164 139.519 43.2556 138.428 43.2556C137.565 43.2099 136.838 42.9359 136.202 42.3426ZM142.973 40.8363V37.6871H143.563V40.7909C143.563 41.9774 144.199 42.6161 145.199 42.6161C146.199 42.6161 146.835 42.0231 146.835 40.8363V37.6871H147.425V40.7909C147.425 42.3884 146.517 43.2099 145.154 43.2099C143.881 43.2099 142.973 42.388 142.973 40.8363ZM150.561 37.6871H152.878C153.56 37.6871 154.06 37.8697 154.423 38.2352C154.696 38.5087 154.832 38.8739 154.832 39.2848C154.832 40.1973 154.196 40.6994 153.378 40.8823L155.059 43.1185H154.332L152.742 41.0192H151.197V43.1185H150.606V37.6871H150.561ZM152.833 40.4714C153.651 40.4714 154.241 40.0604 154.241 39.3758C154.241 38.6913 153.742 38.3263 152.878 38.3263H151.197V40.5168H152.833V40.4714ZM159.876 37.6413H160.467L162.92 43.1185H162.283L161.648 41.7036H158.694L158.058 43.1185H157.422L159.876 37.6413ZM161.376 41.1558L160.149 38.3718L158.922 41.1558H161.376ZM165.51 37.6871H166.101L169.509 42.0231V37.6871H170.099V43.1185H169.6L166.101 38.6458V43.1185H165.51V37.6871ZM172.962 40.4254C172.962 38.8739 174.098 37.5957 175.688 37.5957C176.688 37.5957 177.278 37.9608 177.779 38.4628L177.37 38.9193C176.915 38.4628 176.416 38.1892 175.688 38.1892C174.507 38.1892 173.598 39.1477 173.598 40.4254C173.598 41.7036 174.507 42.6621 175.688 42.6621C176.416 42.6621 176.915 42.388 177.416 41.8865L177.824 42.2969C177.278 42.8904 176.643 43.2556 175.643 43.2556C174.144 43.2099 172.962 41.9774 172.962 40.4254ZM180.506 37.6871H184.413V38.2352H181.096V40.1064H184.05V40.6539H181.096V42.5709H184.413V43.1185H180.506V37.6871Z" fill="#5C6670"/>
</svg>
