<svg width="24" height="24" viewBox="0 0 24 24" fill="none" xmlns="http://www.w3.org/2000/svg">
<path fill-rule="evenodd" clip-rule="evenodd" d="M4.57549 6.54725C4.39304 6.72965 4.24831 6.94621 4.14957 7.18455C4.05082 7.42289 4 7.67836 4 7.93634C4 8.19433 4.05082 8.44979 4.14957 8.68813C4.24831 8.92648 4.39304 9.14303 4.57549 9.32543L12.2501 17L19.9246 9.32543C20.293 8.95702 20.5 8.45735 20.5 7.93634C20.5 7.41533 20.293 6.91566 19.9246 6.54725C19.5562 6.17884 19.0565 5.97187 18.5355 5.97187C18.0145 5.97187 17.5149 6.17884 17.1464 6.54725L12.2501 11.4436L7.35367 6.54725C7.17127 6.3648 6.95471 6.22007 6.71637 6.12133C6.47803 6.02259 6.22257 5.97177 5.96458 5.97177C5.70659 5.97177 5.45113 6.02259 5.21279 6.12133C4.97444 6.22007 4.75789 6.3648 4.57549 6.54725Z" fill="#566369"/>
</svg>
