<svg width="76" height="33" viewBox="0 0 76 33" fill="none" xmlns="http://www.w3.org/2000/svg">
<path d="M6.223 16.4569C6.223 18.0626 4.92131 19.3643 3.3156 19.3643C1.70989 19.3643 0.408203 18.0626 0.408203 16.4569C0.408203 14.8511 1.70989 13.5495 3.3156 13.5495C4.92131 13.5495 6.223 14.8511 6.223 16.4569Z" fill="#FEA145"/>
<path d="M13.2019 16.4569C13.2019 18.0626 11.9002 19.3643 10.2945 19.3643C8.68878 19.3643 7.38709 18.0626 7.38709 16.4569C7.38709 14.8511 8.68878 13.5495 10.2945 13.5495C11.9002 13.5495 13.2019 14.8511 13.2019 16.4569Z" fill="#FEA145"/>
<path d="M20.1779 16.4569C20.1779 18.0626 18.8763 19.3643 17.2705 19.3643C15.6648 19.3643 14.3631 18.0626 14.3631 16.4569C14.3631 14.8511 15.6648 13.5495 17.2705 13.5495C18.8763 13.5495 20.1779 14.8511 20.1779 16.4569Z" fill="#FEA145"/>
<path d="M27.1568 16.4569C27.1568 18.0626 25.8551 19.3643 24.2494 19.3643C22.6437 19.3643 21.342 18.0626 21.342 16.4569C21.342 14.8511 22.6437 13.5495 24.2494 13.5495C25.8551 13.5495 27.1568 14.8511 27.1568 16.4569Z" fill="#FEA145"/>
<path d="M34.1329 16.4569C34.1329 18.0626 32.8312 19.3643 31.2255 19.3643C29.6198 19.3643 28.3181 18.0626 28.3181 16.4569C28.3181 14.8511 29.6198 13.5495 31.2255 13.5495C32.8312 13.5495 34.1329 14.8511 34.1329 16.4569Z" fill="#FEA145"/>
<path d="M41.1118 16.4569C41.1118 18.0626 39.8101 19.3643 38.2044 19.3643C36.5987 19.3643 35.297 18.0626 35.297 16.4569C35.297 14.8511 36.5987 13.5495 38.2044 13.5495C39.8101 13.5495 41.1118 14.8511 41.1118 16.4569Z" fill="#FEA145"/>
<path d="M48.0907 16.4569C48.0907 18.0626 46.789 19.3643 45.1833 19.3643C43.5775 19.3643 42.2759 18.0626 42.2759 16.4569C42.2759 14.8511 43.5775 13.5495 45.1833 13.5495C46.789 13.5495 48.0907 14.8511 48.0907 16.4569Z" fill="#FEA145"/>
<path d="M55.0667 16.4569C55.0667 18.0626 53.765 19.3643 52.1593 19.3643C50.5536 19.3643 49.2519 18.0626 49.2519 16.4569C49.2519 14.8511 50.5536 13.5495 52.1593 13.5495C53.765 13.5495 55.0667 14.8511 55.0667 16.4569Z" fill="#FEA145"/>
<path d="M62.0456 16.4569C62.0456 18.0626 60.7439 19.3643 59.1382 19.3643C57.5325 19.3643 56.2308 18.0626 56.2308 16.4569C56.2308 14.8511 57.5325 13.5495 59.1382 13.5495C60.7439 13.5495 62.0456 14.8511 62.0456 16.4569Z" fill="#FEA145"/>
<path d="M69.0216 16.4569C69.0216 18.0626 67.72 19.3643 66.1142 19.3643C64.5085 19.3643 63.2068 18.0626 63.2068 16.4569C63.2068 14.8511 64.5085 13.5495 66.1142 13.5495C67.72 13.5495 69.0216 14.8511 69.0216 16.4569Z" fill="#FEA145"/>
<path d="M76.0005 16.4569C76.0005 18.0626 74.6988 19.3643 73.0931 19.3643C71.4874 19.3643 70.1857 18.0626 70.1857 16.4569C70.1857 14.8511 71.4874 13.5495 73.0931 13.5495C74.6988 13.5495 76.0005 14.8511 76.0005 16.4569Z" fill="#FEA145"/>
<path d="M70.1857 9.47903C70.1857 11.0847 68.8841 12.3864 67.2783 12.3864C65.6726 12.3864 64.3709 11.0847 64.3709 9.47903C64.3709 7.87332 65.6726 6.57163 67.2783 6.57163C68.8841 6.57163 70.1857 7.87332 70.1857 9.47903Z" fill="#FEA145"/>
<path d="M70.1857 23.4347C70.1857 25.0404 68.8841 26.3421 67.2783 26.3421C65.6726 26.3421 64.3709 25.0404 64.3709 23.4347C64.3709 21.829 65.6726 20.5273 67.2783 20.5273C68.8841 20.5273 70.1857 21.829 70.1857 23.4347Z" fill="#FEA145"/>
<path d="M64.3709 29.2495C64.3709 30.8552 63.0693 32.1569 61.4635 32.1569C59.8578 32.1569 58.5561 30.8552 58.5561 29.2495C58.5561 27.6438 59.8578 26.3421 61.4635 26.3421C63.0693 26.3421 64.3709 27.6438 64.3709 29.2495Z" fill="#FEA145"/>
<path d="M64.3709 3.66423C64.3709 5.26994 63.0693 6.57163 61.4635 6.57163C59.8578 6.57163 58.5561 5.26994 58.5561 3.66423C58.5561 2.05852 59.8578 0.756836 61.4635 0.756836C63.0693 0.756836 64.3709 2.05852 64.3709 3.66423Z" fill="#FEA145"/>
</svg>
